<mxfile host="app.diagrams.net" modified="2021-02-04T14:31:20.504Z" agent="5.0 (Windows NT 10.0; Win64; x64) AppleWebKit/537.36 (KHTML, like Gecko) Chrome/88.0.4324.146 Safari/537.36" etag="hK5hZWoKa-pMpkou0GfX" version="14.2.9" type="github">
  <diagram id="kp00zZsaUpmiRqlkvWzA" name="Page-1">
    <mxGraphModel dx="1422" dy="800" grid="1" gridSize="10" guides="1" tooltips="1" connect="1" arrows="1" fold="1" page="1" pageScale="1" pageWidth="850" pageHeight="1100" math="0" shadow="0">
      <root>
        <mxCell id="0" />
        <mxCell id="1" parent="0" />
        <mxCell id="0DVdKWToDMp02cfyaIwB-1" value="" style="rounded=0;whiteSpace=wrap;html=1;" vertex="1" parent="1">
          <mxGeometry x="70" y="130" width="710" height="590" as="geometry" />
        </mxCell>
        <mxCell id="0DVdKWToDMp02cfyaIwB-2" value="&lt;font style=&quot;font-size: 120px&quot;&gt;Test Diagram&lt;/font&gt;" style="text;html=1;strokeColor=none;fillColor=none;align=center;verticalAlign=middle;whiteSpace=wrap;rounded=0;" vertex="1" parent="1">
          <mxGeometry x="110" y="180" width="620" height="470" as="geometry" />
        </mxCell>
        <mxCell id="0DVdKWToDMp02cfyaIwB-4" value="" style="rhombus;whiteSpace=wrap;html=1;" vertex="1" parent="1">
          <mxGeometry x="20" y="730" width="820" height="360" as="geometry" />
        </mxCell>
        <mxCell id="0DVdKWToDMp02cfyaIwB-5" value="&lt;font style=&quot;font-size: 100px&quot;&gt;CSCS1240&lt;/font&gt;" style="text;html=1;strokeColor=none;fillColor=none;align=center;verticalAlign=middle;whiteSpace=wrap;rounded=0;" vertex="1" parent="1">
          <mxGeometry x="110" y="870" width="630" height="80" as="geometry" />
        </mxCell>
      </root>
    </mxGraphModel>
  </diagram>
</mxfile>
